<svg width="21" height="22" viewBox="0 0 21 22" fill="none" xmlns="http://www.w3.org/2000/svg">
<path d="M18.75 0.5H2.25C0.984375 0.5 0 1.53125 0 2.75V19.25C0 20.5156 0.984375 21.5 2.25 21.5H18.75C19.9688 21.5 21 20.5156 21 19.25V2.75C21 1.53125 19.9688 0.5 18.75 0.5ZM16.4531 7.95312C16.4531 8.09375 16.4531 8.23438 16.4531 8.375C16.4531 12.4062 13.3594 17.0938 7.6875 17.0938C5.95312 17.0938 4.35938 16.625 3 15.7344C3.23438 15.7812 3.46875 15.7812 3.70312 15.7812C5.15625 15.7812 6.46875 15.2656 7.54688 14.4688C6.1875 14.4219 5.0625 13.5312 4.64062 12.3125C5.15625 12.4062 5.57812 12.4062 6.04688 12.2656C4.64062 11.9844 3.60938 10.7656 3.60938 9.26562V9.21875C3.98438 9.45312 4.45312 9.59375 4.96875 9.59375C4.125 9.03125 3.60938 8.09375 3.60938 7.0625C3.60938 6.45312 3.75 5.9375 4.03125 5.46875C5.53125 7.34375 7.82812 8.5625 10.3594 8.70312C9.9375 6.64062 11.4844 4.90625 13.3594 4.90625C14.25 4.90625 15.0469 5.28125 15.6094 5.89062C16.3125 5.75 16.9688 5.51562 17.5781 5.14062C17.3438 5.89062 16.8281 6.45312 16.2188 6.82812C16.8281 6.78125 17.4375 6.59375 18 6.35938C17.5781 6.96875 17.0156 7.53125 16.4531 7.95312Z" fill="#EFF8FA"/>
</svg>
